<svg xmlns="http://www.w3.org/2000/svg">
  <defs>
    <symbol id="logo" viewBox="0 0 48 48"><rect x="2" y="2" width="44" height="44" rx="11" fill="#0a3ea8"/><path d="M24 35C18.5 31.8 12.5 32.8 10 34V24.5C12.5 23.3 18.5 22.3 24 25.8C29.5 22.3 35.5 23.3 38 24.5V34C35.5 32.8 29.5 31.8 24 35Z" fill="#ffffff"/><path d="M24 26V35" stroke="#0a3ea8" stroke-width="1.5" stroke-linecap="round"/><polygon points="24,10 38,16.5 24,23 10,16.5" fill="#3b82f6" stroke="#ffffff" stroke-width="1.5" stroke-linejoin="round"/><path d="M16 19V24C16 27 32 27 32 24V19" fill="none" stroke="#ffffff" stroke-width="1.5" stroke-linecap="round"/><path d="M32 17.5L36.5 23.5V27" stroke="#f59e0b" stroke-width="1.5" stroke-linecap="round" fill="none"/><circle cx="36.5" cy="27.5" r="1.3" fill="#f59e0b"/><path d="M24 4.5L25.3 7.3L28.2 8.2L25.3 9.1L24 11.8L22.7 9.1L19.8 8.2L22.7 7.3Z" fill="#f59e0b"/></symbol>
    <symbol id="home" viewBox="0 0 24 24"><path d="m3 11 9-8 9 8v9a1 1 0 0 1-1 1h-5v-7H9v7H4a1 1 0 0 1-1-1v-9Z"/></symbol>
    <symbol id="user" viewBox="0 0 24 24"><circle cx="12" cy="8" r="4"/><path d="M4 21a8 8 0 0 1 16 0"/></symbol>
    <symbol id="users" viewBox="0 0 24 24"><circle cx="9" cy="8" r="4"/><circle cx="18" cy="9" r="3"/><path d="M2 21a7 7 0 0 1 14 0m0-5a6 6 0 0 1 6 5"/></symbol>
    <symbol id="book" viewBox="0 0 24 24"><path d="M4 4h6a3 3 0 0 1 3 3v13a3 3 0 0 0-3-3H4V4Zm16 0h-4a3 3 0 0 0-3 3v13a3 3 0 0 1 3-3h4V4Z"/></symbol>
    <symbol id="file" viewBox="0 0 24 24"><path d="M6 2h8l4 4v16H6z"/><path d="M14 2v5h5M9 12h6m-6 4h6"/></symbol>
    <symbol id="clipboard" viewBox="0 0 24 24"><rect x="5" y="4" width="14" height="18" rx="2"/><path d="M9 4V2h6v2M9 10l1.5 1.5L14 8m-5 8 1.5 1.5L14 14"/></symbol>
    <symbol id="chart" viewBox="0 0 24 24"><path d="M4 20V10m6 10V4m6 16v-7m4 7H2"/></symbol>
    <symbol id="trend" viewBox="0 0 24 24"><path d="m3 17 6-6 4 4 7-8"/><path d="M15 7h5v5"/></symbol>
    <symbol id="target" viewBox="0 0 24 24"><circle cx="12" cy="12" r="9"/><circle cx="12" cy="12" r="5"/><circle cx="12" cy="12" r="1"/></symbol>
    <symbol id="clock" viewBox="0 0 24 24"><circle cx="12" cy="12" r="9"/><path d="M12 7v5l3 2"/></symbol>
    <symbol id="calendar" viewBox="0 0 24 24"><rect x="3" y="5" width="18" height="16" rx="2"/><path d="M7 3v4m10-4v4M3 10h18"/></symbol>
    <symbol id="video" viewBox="0 0 24 24"><rect x="3" y="5" width="13" height="14" rx="2"/><path d="m16 10 5-3v10l-5-3z"/></symbol>
    <symbol id="award" viewBox="0 0 24 24"><circle cx="12" cy="9" r="6"/><path d="m8 14-2 8 6-3 6 3-2-8"/><path d="m12 6 1 2 2 .3-1.5 1.5.4 2.2-1.9-1-1.9 1 .4-2.2L9 8.3l2-.3z"/></symbol>
    <symbol id="trophy" viewBox="0 0 24 24"><path d="M7 3h10v5a5 5 0 0 1-10 0V3Z"/><path d="M7 5H3v2a4 4 0 0 0 5 4m9-6h4v2a4 4 0 0 1-5 4M12 13v5m-4 3h8m-6-3h4"/></symbol>
    <symbol id="bank" viewBox="0 0 24 24"><path d="m3 9 9-6 9 6H3Zm2 3h14M6 12v6m4-6v6m4-6v6m4-6v6M3 21h18"/></symbol>
    <symbol id="train" viewBox="0 0 24 24"><rect x="6" y="2" width="12" height="16" rx="3"/><path d="M8 6h8M8 11h8m-7 7-3 4m9-4 3 4M9 15h.01M15 15h.01"/></symbol>
    <symbol id="gear" viewBox="0 0 24 24"><circle cx="12" cy="12" r="3"/><path d="M19 12a7 7 0 0 0-.1-1l2-1.5-2-3.4-2.4 1A8 8 0 0 0 15 6l-.3-2.6h-4L10.4 6A8 8 0 0 0 9 7.1l-2.4-1-2 3.4L6.6 11a7 7 0 0 0 0 2l-2 1.5 2 3.4 2.4-1A8 8 0 0 0 10.4 18l.3 2.6h4L15 18a8 8 0 0 0 1.5-1.1l2.4 1 2-3.4-2-1.5c.1-.3.1-.7.1-1Z"/></symbol>
    <symbol id="cap" viewBox="0 0 24 24"><path d="m2 9 10-5 10 5-10 5L2 9Z"/><path d="M6 11v5c3 3 9 3 12 0v-5m4-2v7"/></symbol>
    <symbol id="shield" viewBox="0 0 24 24"><path d="M12 2 4 5v6c0 5 3.4 9.4 8 11 4.6-1.6 8-6 8-11V5l-8-3Z"/><path d="m8 12 2.5 2.5L16 9"/></symbol>
    <symbol id="check" viewBox="0 0 24 24"><path d="m5 12 4 4L19 6"/></symbol>
    <symbol id="arrow" viewBox="0 0 24 24"><path d="M5 12h14m-5-5 5 5-5 5"/></symbol>
    <symbol id="download" viewBox="0 0 24 24"><path d="M12 3v12m-5-5 5 5 5-5M5 21h14"/></symbol>
    <symbol id="bookmark" viewBox="0 0 24 24"><path d="M6 3h12v18l-6-4-6 4z"/></symbol>
    <symbol id="search" viewBox="0 0 24 24"><circle cx="11" cy="11" r="7"/><path d="m20 20-4-4"/></symbol>
    <symbol id="menu" viewBox="0 0 24 24"><path d="M4 7h16M4 12h16M4 17h16"/></symbol>
    <symbol id="close" viewBox="0 0 24 24"><path d="m6 6 12 12M18 6 6 18"/></symbol>
    <symbol id="sun" viewBox="0 0 24 24"><circle cx="12" cy="12" r="4"/><path d="M12 2v2m0 16v2M4.9 4.9l1.4 1.4m11.4 11.4 1.4 1.4M2 12h2m16 0h2M4.9 19.1l1.4-1.4M17.7 6.3l1.4-1.4"/></symbol>
    <symbol id="moon" viewBox="0 0 24 24"><path d="M20 15.5A9 9 0 0 1 8.5 4 9 9 0 1 0 20 15.5Z"/></symbol>
    <symbol id="globe" viewBox="0 0 24 24"><circle cx="12" cy="12" r="9"/><path d="M3 12h18M12 3a14 14 0 0 1 0 18m0-18a14 14 0 0 0 0 18"/></symbol>
    <symbol id="bell" viewBox="0 0 24 24"><path d="M18 8a6 6 0 0 0-12 0c0 7-3 7-3 9h18c0-2-3-2-3-9Zm-8 12h4"/></symbol>
    <symbol id="mail" viewBox="0 0 24 24"><rect x="3" y="5" width="18" height="14" rx="2"/><path d="m3 7 9 6 9-6"/></symbol>
    <symbol id="phone" viewBox="0 0 24 24"><path d="M7 3H4a2 2 0 0 0-2 2c0 9.4 7.6 17 17 17a2 2 0 0 0 2-2v-3l-5-2-2 3c-4-1.6-6.4-4-8-8l3-2-2-5Z"/></symbol>
    <symbol id="location" viewBox="0 0 24 24"><path d="M20 10c0 5-8 12-8 12S4 15 4 10a8 8 0 1 1 16 0Z"/><circle cx="12" cy="10" r="2"/></symbol>
    <symbol id="help" viewBox="0 0 24 24"><circle cx="12" cy="12" r="9"/><path d="M9.5 9a2.7 2.7 0 1 1 4.2 2.2c-1 .7-1.7 1.2-1.7 2.8m0 3h.01"/></symbol>
    <symbol id="headphones" viewBox="0 0 24 24"><path d="M4 14v-3a8 8 0 0 1 16 0v3"/><path d="M4 14H2v5h4v-5H4Zm16 0h2v5h-4v-5h2Z"/></symbol>
    <symbol id="lock" viewBox="0 0 24 24"><rect x="5" y="10" width="14" height="11" rx="2"/><path d="M8 10V7a4 4 0 0 1 8 0v3"/></symbol>
    <symbol id="eye" viewBox="0 0 24 24"><path d="M2 12s4-7 10-7 10 7 10 7-4 7-10 7S2 12 2 12Z"/><circle cx="12" cy="12" r="3"/></symbol>
  </defs>
</svg>
